<mxfile host="app.diagrams.net" agent="Mozilla/5.0 (Windows NT 10.0; Win64; x64; rv:132.0) Gecko/20100101 Firefox/132.0" version="24.8.4">
  <diagram name="Сторінка-1" id="EW1WUy4jS1go-6NA-FxF">
    <mxGraphModel grid="1" page="1" gridSize="10" guides="1" tooltips="1" connect="1" arrows="1" fold="1" pageScale="1" pageWidth="827" pageHeight="1169" math="0" shadow="0">
      <root>
        <mxCell id="0" />
        <mxCell id="1" parent="0" />
        <mxCell id="QtVIB-dNij4-l_Jry0lX-2" style="edgeStyle=orthogonalEdgeStyle;rounded=0;orthogonalLoop=1;jettySize=auto;html=1;" edge="1" parent="1" source="QtVIB-dNij4-l_Jry0lX-1">
          <mxGeometry relative="1" as="geometry">
            <mxPoint x="-605" y="130" as="targetPoint" />
          </mxGeometry>
        </mxCell>
        <mxCell id="QtVIB-dNij4-l_Jry0lX-1" value="Start" style="ellipse;whiteSpace=wrap;html=1;" vertex="1" parent="1">
          <mxGeometry x="-665" y="10" width="120" height="80" as="geometry" />
        </mxCell>
        <mxCell id="QtVIB-dNij4-l_Jry0lX-5" style="edgeStyle=orthogonalEdgeStyle;rounded=0;orthogonalLoop=1;jettySize=auto;html=1;entryX=0.5;entryY=0;entryDx=0;entryDy=0;" edge="1" parent="1" source="QtVIB-dNij4-l_Jry0lX-3" target="QtVIB-dNij4-l_Jry0lX-4">
          <mxGeometry relative="1" as="geometry" />
        </mxCell>
        <mxCell id="QtVIB-dNij4-l_Jry0lX-3" value="&lt;div&gt;int option&lt;/div&gt;&lt;div&gt;int continuee&lt;/div&gt;&lt;div&gt;vector&amp;lt;string&amp;gt; books={&quot;booknum1&quot;,&quot;booknum2&quot;,&quot;booknum3&quot;,&quot;booknum4&quot;,&quot;booknum5&quot;,}&lt;/div&gt;&lt;div&gt;vector&amp;lt;bool&amp;gt; bookavailability(books.size())&lt;br&gt;&lt;/div&gt;" style="rounded=0;whiteSpace=wrap;html=1;" vertex="1" parent="1">
          <mxGeometry x="-810" y="130" width="410" height="70" as="geometry" />
        </mxCell>
        <mxCell id="QtVIB-dNij4-l_Jry0lX-6" style="edgeStyle=orthogonalEdgeStyle;rounded=0;orthogonalLoop=1;jettySize=auto;html=1;" edge="1" parent="1" source="QtVIB-dNij4-l_Jry0lX-4" target="QtVIB-dNij4-l_Jry0lX-7">
          <mxGeometry relative="1" as="geometry">
            <mxPoint x="-605" y="340" as="targetPoint" />
          </mxGeometry>
        </mxCell>
        <mxCell id="QtVIB-dNij4-l_Jry0lX-4" value="int i=0" style="rounded=0;whiteSpace=wrap;html=1;" vertex="1" parent="1">
          <mxGeometry x="-665" y="230" width="120" height="60" as="geometry" />
        </mxCell>
        <mxCell id="QtVIB-dNij4-l_Jry0lX-8" style="edgeStyle=orthogonalEdgeStyle;rounded=0;orthogonalLoop=1;jettySize=auto;html=1;" edge="1" parent="1" source="QtVIB-dNij4-l_Jry0lX-7">
          <mxGeometry relative="1" as="geometry">
            <mxPoint x="-605" y="440" as="targetPoint" />
          </mxGeometry>
        </mxCell>
        <mxCell id="QtVIB-dNij4-l_Jry0lX-7" value="bookavailability[i]=true" style="rounded=0;whiteSpace=wrap;html=1;" vertex="1" parent="1">
          <mxGeometry x="-667.5" y="340" width="125" height="60" as="geometry" />
        </mxCell>
        <mxCell id="QtVIB-dNij4-l_Jry0lX-10" style="edgeStyle=orthogonalEdgeStyle;rounded=0;orthogonalLoop=1;jettySize=auto;html=1;" edge="1" parent="1" source="QtVIB-dNij4-l_Jry0lX-9">
          <mxGeometry relative="1" as="geometry">
            <mxPoint x="-605" y="310" as="targetPoint" />
            <Array as="points">
              <mxPoint x="-719" y="480" />
              <mxPoint x="-719" y="310" />
            </Array>
          </mxGeometry>
        </mxCell>
        <mxCell id="QtVIB-dNij4-l_Jry0lX-11" value="Yes" style="edgeLabel;html=1;align=center;verticalAlign=middle;resizable=0;points=[];" connectable="0" vertex="1" parent="QtVIB-dNij4-l_Jry0lX-10">
          <mxGeometry x="-0.8483" relative="1" as="geometry">
            <mxPoint as="offset" />
          </mxGeometry>
        </mxCell>
        <mxCell id="QtVIB-dNij4-l_Jry0lX-12" value="i++" style="edgeLabel;html=1;align=center;verticalAlign=middle;resizable=0;points=[];" connectable="0" vertex="1" parent="QtVIB-dNij4-l_Jry0lX-10">
          <mxGeometry x="-0.1415" y="1" relative="1" as="geometry">
            <mxPoint as="offset" />
          </mxGeometry>
        </mxCell>
        <mxCell id="QtVIB-dNij4-l_Jry0lX-13" style="edgeStyle=orthogonalEdgeStyle;rounded=0;orthogonalLoop=1;jettySize=auto;html=1;" edge="1" parent="1" source="QtVIB-dNij4-l_Jry0lX-9" target="QtVIB-dNij4-l_Jry0lX-14">
          <mxGeometry relative="1" as="geometry">
            <mxPoint x="-605" y="570" as="targetPoint" />
          </mxGeometry>
        </mxCell>
        <mxCell id="QtVIB-dNij4-l_Jry0lX-15" value="options:" style="edgeLabel;html=1;align=center;verticalAlign=middle;resizable=0;points=[];" connectable="0" vertex="1" parent="QtVIB-dNij4-l_Jry0lX-13">
          <mxGeometry x="-0.1867" y="-1" relative="1" as="geometry">
            <mxPoint as="offset" />
          </mxGeometry>
        </mxCell>
        <mxCell id="QtVIB-dNij4-l_Jry0lX-9" value="i&amp;lt;books.size()?" style="rhombus;whiteSpace=wrap;html=1;" vertex="1" parent="1">
          <mxGeometry x="-662.5" y="440" width="115" height="80" as="geometry" />
        </mxCell>
        <mxCell id="QtVIB-dNij4-l_Jry0lX-16" style="edgeStyle=orthogonalEdgeStyle;rounded=0;orthogonalLoop=1;jettySize=auto;html=1;" edge="1" parent="1" source="QtVIB-dNij4-l_Jry0lX-14">
          <mxGeometry relative="1" as="geometry">
            <mxPoint x="-605" y="720" as="targetPoint" />
          </mxGeometry>
        </mxCell>
        <mxCell id="QtVIB-dNij4-l_Jry0lX-14" value="&lt;div&gt;Output &quot;You are currently in a library.&lt;/div&gt;&lt;div&gt;What would you like to do?&quot; endl&lt;/div&gt;&lt;div&gt;&quot;1 - list all books.&quot; endl&lt;/div&gt;&lt;div&gt;&quot;2 - borrow a book.&quot; endl&lt;/div&gt;&lt;div&gt;&quot;3 - return a book.&quot; endl&lt;/div&gt;&lt;div&gt;&quot;4 - leave.&quot; endl&lt;br&gt;&lt;/div&gt;" style="shape=parallelogram;perimeter=parallelogramPerimeter;whiteSpace=wrap;html=1;fixedSize=1;" vertex="1" parent="1">
          <mxGeometry x="-720" y="570" width="230" height="110" as="geometry" />
        </mxCell>
        <mxCell id="QtVIB-dNij4-l_Jry0lX-19" value="" style="edgeStyle=orthogonalEdgeStyle;rounded=0;orthogonalLoop=1;jettySize=auto;html=1;" edge="1" parent="1" source="QtVIB-dNij4-l_Jry0lX-17" target="QtVIB-dNij4-l_Jry0lX-18">
          <mxGeometry relative="1" as="geometry" />
        </mxCell>
        <mxCell id="QtVIB-dNij4-l_Jry0lX-17" value="Input option" style="shape=parallelogram;perimeter=parallelogramPerimeter;whiteSpace=wrap;html=1;fixedSize=1;" vertex="1" parent="1">
          <mxGeometry x="-665" y="720" width="120" height="60" as="geometry" />
        </mxCell>
        <mxCell id="QtVIB-dNij4-l_Jry0lX-21" value="" style="edgeStyle=orthogonalEdgeStyle;rounded=0;orthogonalLoop=1;jettySize=auto;html=1;" edge="1" parent="1" source="QtVIB-dNij4-l_Jry0lX-18" target="QtVIB-dNij4-l_Jry0lX-20">
          <mxGeometry relative="1" as="geometry" />
        </mxCell>
        <mxCell id="QtVIB-dNij4-l_Jry0lX-18" value="switch(option)" style="rounded=0;whiteSpace=wrap;html=1;" vertex="1" parent="1">
          <mxGeometry x="-665" y="830" width="120" height="60" as="geometry" />
        </mxCell>
        <mxCell id="QtVIB-dNij4-l_Jry0lX-25" value="" style="edgeStyle=orthogonalEdgeStyle;rounded=0;orthogonalLoop=1;jettySize=auto;html=1;" edge="1" parent="1" source="QtVIB-dNij4-l_Jry0lX-20" target="QtVIB-dNij4-l_Jry0lX-22">
          <mxGeometry relative="1" as="geometry" />
        </mxCell>
        <mxCell id="QtVIB-dNij4-l_Jry0lX-45" value="No" style="edgeLabel;html=1;align=center;verticalAlign=middle;resizable=0;points=[];" connectable="0" vertex="1" parent="QtVIB-dNij4-l_Jry0lX-25">
          <mxGeometry x="0.5794" y="-1" relative="1" as="geometry">
            <mxPoint as="offset" />
          </mxGeometry>
        </mxCell>
        <mxCell id="QtVIB-dNij4-l_Jry0lX-28" style="edgeStyle=orthogonalEdgeStyle;rounded=0;orthogonalLoop=1;jettySize=auto;html=1;" edge="1" parent="1" source="QtVIB-dNij4-l_Jry0lX-20">
          <mxGeometry relative="1" as="geometry">
            <mxPoint x="-490" y="980" as="targetPoint" />
          </mxGeometry>
        </mxCell>
        <mxCell id="QtVIB-dNij4-l_Jry0lX-46" value="Yes" style="edgeLabel;html=1;align=center;verticalAlign=middle;resizable=0;points=[];" connectable="0" vertex="1" parent="QtVIB-dNij4-l_Jry0lX-28">
          <mxGeometry x="-0.2114" relative="1" as="geometry">
            <mxPoint as="offset" />
          </mxGeometry>
        </mxCell>
        <mxCell id="QtVIB-dNij4-l_Jry0lX-20" value="option==1?" style="rhombus;whiteSpace=wrap;html=1;" vertex="1" parent="1">
          <mxGeometry x="-667.5" y="940" width="125" height="80" as="geometry" />
        </mxCell>
        <mxCell id="QtVIB-dNij4-l_Jry0lX-26" value="" style="edgeStyle=orthogonalEdgeStyle;rounded=0;orthogonalLoop=1;jettySize=auto;html=1;" edge="1" parent="1" source="QtVIB-dNij4-l_Jry0lX-22" target="QtVIB-dNij4-l_Jry0lX-23">
          <mxGeometry relative="1" as="geometry" />
        </mxCell>
        <mxCell id="QtVIB-dNij4-l_Jry0lX-44" value="No" style="edgeLabel;html=1;align=center;verticalAlign=middle;resizable=0;points=[];" connectable="0" vertex="1" parent="QtVIB-dNij4-l_Jry0lX-26">
          <mxGeometry x="0.5592" relative="1" as="geometry">
            <mxPoint as="offset" />
          </mxGeometry>
        </mxCell>
        <mxCell id="QtVIB-dNij4-l_Jry0lX-29" style="edgeStyle=orthogonalEdgeStyle;rounded=0;orthogonalLoop=1;jettySize=auto;html=1;" edge="1" parent="1" source="QtVIB-dNij4-l_Jry0lX-22">
          <mxGeometry relative="1" as="geometry">
            <mxPoint x="-490" y="1080" as="targetPoint" />
          </mxGeometry>
        </mxCell>
        <mxCell id="QtVIB-dNij4-l_Jry0lX-47" value="Yes" style="edgeLabel;html=1;align=center;verticalAlign=middle;resizable=0;points=[];" connectable="0" vertex="1" parent="QtVIB-dNij4-l_Jry0lX-29">
          <mxGeometry x="-0.2114" relative="1" as="geometry">
            <mxPoint as="offset" />
          </mxGeometry>
        </mxCell>
        <mxCell id="QtVIB-dNij4-l_Jry0lX-22" value="option==2?" style="rhombus;whiteSpace=wrap;html=1;" vertex="1" parent="1">
          <mxGeometry x="-667.5" y="1040" width="125" height="80" as="geometry" />
        </mxCell>
        <mxCell id="QtVIB-dNij4-l_Jry0lX-27" value="" style="edgeStyle=orthogonalEdgeStyle;rounded=0;orthogonalLoop=1;jettySize=auto;html=1;" edge="1" parent="1" source="QtVIB-dNij4-l_Jry0lX-23" target="QtVIB-dNij4-l_Jry0lX-24">
          <mxGeometry relative="1" as="geometry" />
        </mxCell>
        <mxCell id="QtVIB-dNij4-l_Jry0lX-43" value="No" style="edgeLabel;html=1;align=center;verticalAlign=middle;resizable=0;points=[];" connectable="0" vertex="1" parent="QtVIB-dNij4-l_Jry0lX-27">
          <mxGeometry x="0.5996" y="-2" relative="1" as="geometry">
            <mxPoint x="1" y="-1" as="offset" />
          </mxGeometry>
        </mxCell>
        <mxCell id="QtVIB-dNij4-l_Jry0lX-30" style="edgeStyle=orthogonalEdgeStyle;rounded=0;orthogonalLoop=1;jettySize=auto;html=1;" edge="1" parent="1" source="QtVIB-dNij4-l_Jry0lX-23">
          <mxGeometry relative="1" as="geometry">
            <mxPoint x="-490" y="1180" as="targetPoint" />
          </mxGeometry>
        </mxCell>
        <mxCell id="QtVIB-dNij4-l_Jry0lX-48" value="Yes" style="edgeLabel;html=1;align=center;verticalAlign=middle;resizable=0;points=[];" connectable="0" vertex="1" parent="QtVIB-dNij4-l_Jry0lX-30">
          <mxGeometry x="-0.1892" relative="1" as="geometry">
            <mxPoint as="offset" />
          </mxGeometry>
        </mxCell>
        <mxCell id="QtVIB-dNij4-l_Jry0lX-23" value="option==3?" style="rhombus;whiteSpace=wrap;html=1;" vertex="1" parent="1">
          <mxGeometry x="-667.5" y="1140" width="125" height="80" as="geometry" />
        </mxCell>
        <mxCell id="QtVIB-dNij4-l_Jry0lX-31" style="edgeStyle=orthogonalEdgeStyle;rounded=0;orthogonalLoop=1;jettySize=auto;html=1;" edge="1" parent="1" source="QtVIB-dNij4-l_Jry0lX-24">
          <mxGeometry relative="1" as="geometry">
            <mxPoint x="-490" y="1280" as="targetPoint" />
          </mxGeometry>
        </mxCell>
        <mxCell id="QtVIB-dNij4-l_Jry0lX-49" value="Yes" style="edgeLabel;html=1;align=center;verticalAlign=middle;resizable=0;points=[];" connectable="0" vertex="1" parent="QtVIB-dNij4-l_Jry0lX-31">
          <mxGeometry x="-0.1448" relative="1" as="geometry">
            <mxPoint as="offset" />
          </mxGeometry>
        </mxCell>
        <mxCell id="QtVIB-dNij4-l_Jry0lX-32" style="edgeStyle=orthogonalEdgeStyle;rounded=0;orthogonalLoop=1;jettySize=auto;html=1;" edge="1" parent="1" source="QtVIB-dNij4-l_Jry0lX-24">
          <mxGeometry relative="1" as="geometry">
            <mxPoint x="-605" y="1350" as="targetPoint" />
          </mxGeometry>
        </mxCell>
        <mxCell id="QtVIB-dNij4-l_Jry0lX-42" value="No" style="edgeLabel;html=1;align=center;verticalAlign=middle;resizable=0;points=[];" connectable="0" vertex="1" parent="QtVIB-dNij4-l_Jry0lX-32">
          <mxGeometry x="-0.3496" relative="1" as="geometry">
            <mxPoint as="offset" />
          </mxGeometry>
        </mxCell>
        <mxCell id="QtVIB-dNij4-l_Jry0lX-24" value="option==4?" style="rhombus;whiteSpace=wrap;html=1;" vertex="1" parent="1">
          <mxGeometry x="-667.5" y="1240" width="125" height="80" as="geometry" />
        </mxCell>
        <mxCell id="QtVIB-dNij4-l_Jry0lX-34" style="edgeStyle=orthogonalEdgeStyle;rounded=0;orthogonalLoop=1;jettySize=auto;html=1;" edge="1" parent="1" source="QtVIB-dNij4-l_Jry0lX-33">
          <mxGeometry relative="1" as="geometry">
            <mxPoint x="-630" y="540" as="targetPoint" />
            <Array as="points">
              <mxPoint x="-790" y="1395" />
              <mxPoint x="-790" y="540" />
            </Array>
          </mxGeometry>
        </mxCell>
        <mxCell id="QtVIB-dNij4-l_Jry0lX-33" value="&lt;div&gt;Output &quot;You chose an option that&amp;nbsp;&lt;/div&gt;&lt;div&gt;doesn&#39;t exist, try again!&quot;&lt;/div&gt;" style="shape=parallelogram;perimeter=parallelogramPerimeter;whiteSpace=wrap;html=1;fixedSize=1;" vertex="1" parent="1">
          <mxGeometry x="-682.5" y="1350" width="155" height="90" as="geometry" />
        </mxCell>
        <mxCell id="QtVIB-dNij4-l_Jry0lX-35" value="&lt;div&gt;listAllofEm&lt;/div&gt;&lt;div&gt;(books,&lt;/div&gt;&lt;div&gt;bookavailability)&lt;br&gt;&lt;/div&gt;" style="shape=process;whiteSpace=wrap;html=1;backgroundOutline=1;" vertex="1" parent="1">
          <mxGeometry x="-490" y="950" width="120" height="60" as="geometry" />
        </mxCell>
        <mxCell id="QtVIB-dNij4-l_Jry0lX-36" value="&lt;div&gt;returnAbook&lt;/div&gt;&lt;div&gt;(books,&lt;/div&gt;&lt;div&gt;bookavailability)&lt;br&gt;&lt;/div&gt;" style="shape=process;whiteSpace=wrap;html=1;backgroundOutline=1;" vertex="1" parent="1">
          <mxGeometry x="-490" y="1150" width="120" height="60" as="geometry" />
        </mxCell>
        <mxCell id="QtVIB-dNij4-l_Jry0lX-37" value="&lt;div&gt;borrowAbook&lt;/div&gt;&lt;div&gt;(books,&lt;/div&gt;&lt;div&gt;bookavailability)&lt;br&gt;&lt;/div&gt;" style="shape=process;whiteSpace=wrap;html=1;backgroundOutline=1;" vertex="1" parent="1">
          <mxGeometry x="-490" y="1050" width="120" height="60" as="geometry" />
        </mxCell>
        <mxCell id="QtVIB-dNij4-l_Jry0lX-40" style="edgeStyle=orthogonalEdgeStyle;rounded=0;orthogonalLoop=1;jettySize=auto;html=1;" edge="1" parent="1" source="QtVIB-dNij4-l_Jry0lX-38" target="QtVIB-dNij4-l_Jry0lX-41">
          <mxGeometry relative="1" as="geometry">
            <mxPoint x="-422.5" y="1390" as="targetPoint" />
          </mxGeometry>
        </mxCell>
        <mxCell id="QtVIB-dNij4-l_Jry0lX-38" value="&lt;div&gt;Output &quot;Thank you for visiting our library!&quot;&lt;/div&gt;" style="shape=parallelogram;perimeter=parallelogramPerimeter;whiteSpace=wrap;html=1;fixedSize=1;" vertex="1" parent="1">
          <mxGeometry x="-500" y="1235" width="140" height="90" as="geometry" />
        </mxCell>
        <mxCell id="QtVIB-dNij4-l_Jry0lX-41" value="End" style="ellipse;whiteSpace=wrap;html=1;" vertex="1" parent="1">
          <mxGeometry x="-490" y="1360" width="120" height="80" as="geometry" />
        </mxCell>
        <mxCell id="QtVIB-dNij4-l_Jry0lX-50" value="" style="endArrow=none;html=1;rounded=0;" edge="1" parent="1">
          <mxGeometry width="50" height="50" relative="1" as="geometry">
            <mxPoint x="-370" y="980" as="sourcePoint" />
            <mxPoint x="-280" y="980" as="targetPoint" />
          </mxGeometry>
        </mxCell>
        <mxCell id="QtVIB-dNij4-l_Jry0lX-51" value="" style="endArrow=none;html=1;rounded=0;" edge="1" parent="1">
          <mxGeometry width="50" height="50" relative="1" as="geometry">
            <mxPoint x="-370" y="1079.63" as="sourcePoint" />
            <mxPoint x="-280" y="1079.63" as="targetPoint" />
          </mxGeometry>
        </mxCell>
        <mxCell id="QtVIB-dNij4-l_Jry0lX-53" value="&lt;div&gt;break&lt;/div&gt;" style="edgeLabel;html=1;align=center;verticalAlign=middle;resizable=0;points=[];" connectable="0" vertex="1" parent="QtVIB-dNij4-l_Jry0lX-51">
          <mxGeometry x="-0.2041" relative="1" as="geometry">
            <mxPoint x="10" as="offset" />
          </mxGeometry>
        </mxCell>
        <mxCell id="QtVIB-dNij4-l_Jry0lX-52" value="" style="endArrow=none;html=1;rounded=0;" edge="1" parent="1">
          <mxGeometry width="50" height="50" relative="1" as="geometry">
            <mxPoint x="-370" y="1179.63" as="sourcePoint" />
            <mxPoint x="-280" y="1179.63" as="targetPoint" />
          </mxGeometry>
        </mxCell>
        <mxCell id="QtVIB-dNij4-l_Jry0lX-54" value="&lt;div&gt;break&lt;/div&gt;" style="edgeLabel;html=1;align=center;verticalAlign=middle;resizable=0;points=[];" connectable="0" vertex="1" parent="1">
          <mxGeometry x="-324.44444444444457" y="1180" as="geometry" />
        </mxCell>
        <mxCell id="QtVIB-dNij4-l_Jry0lX-56" value="&lt;div&gt;break&lt;/div&gt;" style="edgeLabel;html=1;align=center;verticalAlign=middle;resizable=0;points=[];" connectable="0" vertex="1" parent="1">
          <mxGeometry x="-324.0044444444446" y="980.0000000000001" as="geometry" />
        </mxCell>
        <mxCell id="QtVIB-dNij4-l_Jry0lX-58" value="" style="endArrow=classic;html=1;rounded=0;" edge="1" parent="1">
          <mxGeometry width="50" height="50" relative="1" as="geometry">
            <mxPoint x="-280" y="980" as="sourcePoint" />
            <mxPoint x="-280" y="1240" as="targetPoint" />
          </mxGeometry>
        </mxCell>
        <mxCell id="QtVIB-dNij4-l_Jry0lX-60" style="edgeStyle=orthogonalEdgeStyle;rounded=0;orthogonalLoop=1;jettySize=auto;html=1;" edge="1" parent="1" source="QtVIB-dNij4-l_Jry0lX-59" target="QtVIB-dNij4-l_Jry0lX-61">
          <mxGeometry relative="1" as="geometry">
            <mxPoint x="-285" y="1340" as="targetPoint" />
          </mxGeometry>
        </mxCell>
        <mxCell id="QtVIB-dNij4-l_Jry0lX-59" value="&lt;div&gt;Output&lt;/div&gt;&lt;div&gt;&quot;Anything else?&lt;/div&gt;&lt;div&gt;(1 - y, 0 - n)&quot; endl&lt;/div&gt;" style="shape=parallelogram;perimeter=parallelogramPerimeter;whiteSpace=wrap;html=1;fixedSize=1;" vertex="1" parent="1">
          <mxGeometry x="-350" y="1240" width="130" height="60" as="geometry" />
        </mxCell>
        <mxCell id="QtVIB-dNij4-l_Jry0lX-63" style="edgeStyle=orthogonalEdgeStyle;rounded=0;orthogonalLoop=1;jettySize=auto;html=1;entryX=0.5;entryY=0;entryDx=0;entryDy=0;" edge="1" parent="1" source="QtVIB-dNij4-l_Jry0lX-61" target="QtVIB-dNij4-l_Jry0lX-62">
          <mxGeometry relative="1" as="geometry" />
        </mxCell>
        <mxCell id="QtVIB-dNij4-l_Jry0lX-61" value="Input continuee" style="shape=parallelogram;perimeter=parallelogramPerimeter;whiteSpace=wrap;html=1;fixedSize=1;" vertex="1" parent="1">
          <mxGeometry x="-345" y="1325" width="120" height="60" as="geometry" />
        </mxCell>
        <mxCell id="QtVIB-dNij4-l_Jry0lX-64" style="edgeStyle=orthogonalEdgeStyle;rounded=0;orthogonalLoop=1;jettySize=auto;html=1;entryX=1;entryY=0.5;entryDx=0;entryDy=0;" edge="1" parent="1" source="QtVIB-dNij4-l_Jry0lX-62" target="QtVIB-dNij4-l_Jry0lX-38">
          <mxGeometry relative="1" as="geometry">
            <Array as="points">
              <mxPoint x="-360" y="1460" />
              <mxPoint x="-360" y="1280" />
            </Array>
          </mxGeometry>
        </mxCell>
        <mxCell id="QtVIB-dNij4-l_Jry0lX-65" value="Yes" style="edgeLabel;html=1;align=center;verticalAlign=middle;resizable=0;points=[];" connectable="0" vertex="1" parent="QtVIB-dNij4-l_Jry0lX-64">
          <mxGeometry x="-0.8902" relative="1" as="geometry">
            <mxPoint as="offset" />
          </mxGeometry>
        </mxCell>
        <mxCell id="QtVIB-dNij4-l_Jry0lX-66" style="edgeStyle=orthogonalEdgeStyle;rounded=0;orthogonalLoop=1;jettySize=auto;html=1;" edge="1" parent="1" source="QtVIB-dNij4-l_Jry0lX-62">
          <mxGeometry relative="1" as="geometry">
            <mxPoint x="-285" y="1540" as="targetPoint" />
          </mxGeometry>
        </mxCell>
        <mxCell id="QtVIB-dNij4-l_Jry0lX-67" value="No" style="edgeLabel;html=1;align=center;verticalAlign=middle;resizable=0;points=[];" connectable="0" vertex="1" parent="QtVIB-dNij4-l_Jry0lX-66">
          <mxGeometry x="-0.1977" relative="1" as="geometry">
            <mxPoint as="offset" />
          </mxGeometry>
        </mxCell>
        <mxCell id="QtVIB-dNij4-l_Jry0lX-62" value="continuee==0?" style="rhombus;whiteSpace=wrap;html=1;" vertex="1" parent="1">
          <mxGeometry x="-337.5" y="1420" width="105" height="80" as="geometry" />
        </mxCell>
        <mxCell id="QtVIB-dNij4-l_Jry0lX-69" style="edgeStyle=orthogonalEdgeStyle;rounded=0;orthogonalLoop=1;jettySize=auto;html=1;" edge="1" parent="1" source="QtVIB-dNij4-l_Jry0lX-68">
          <mxGeometry relative="1" as="geometry">
            <mxPoint x="-280" y="1210" as="targetPoint" />
            <Array as="points">
              <mxPoint x="-170" y="1580" />
              <mxPoint x="-170" y="1210" />
              <mxPoint x="-280" y="1210" />
            </Array>
          </mxGeometry>
        </mxCell>
        <mxCell id="QtVIB-dNij4-l_Jry0lX-70" value="Yes" style="edgeLabel;html=1;align=center;verticalAlign=middle;resizable=0;points=[];" connectable="0" vertex="1" parent="QtVIB-dNij4-l_Jry0lX-69">
          <mxGeometry x="-0.8968" relative="1" as="geometry">
            <mxPoint as="offset" />
          </mxGeometry>
        </mxCell>
        <mxCell id="QtVIB-dNij4-l_Jry0lX-71" style="edgeStyle=orthogonalEdgeStyle;rounded=0;orthogonalLoop=1;jettySize=auto;html=1;" edge="1" parent="1">
          <mxGeometry relative="1" as="geometry">
            <mxPoint x="-606" y="530" as="targetPoint" />
            <mxPoint x="-332.24999999999955" y="1580" as="sourcePoint" />
            <Array as="points">
              <mxPoint x="-805" y="1580" />
              <mxPoint x="-805" y="530" />
            </Array>
          </mxGeometry>
        </mxCell>
        <mxCell id="QtVIB-dNij4-l_Jry0lX-68" value="continuee!=1?" style="rhombus;whiteSpace=wrap;html=1;" vertex="1" parent="1">
          <mxGeometry x="-336.25" y="1540" width="102.5" height="80" as="geometry" />
        </mxCell>
        <mxCell id="QtVIB-dNij4-l_Jry0lX-72" value="&lt;div&gt;&lt;b&gt;void listAllofEm(vector&amp;lt;string&amp;gt; &amp;amp;books, vector&amp;lt;bool&amp;gt; &amp;amp;bookavailability)&lt;/b&gt;&lt;/div&gt;" style="text;html=1;align=center;verticalAlign=middle;resizable=0;points=[];autosize=1;strokeColor=none;fillColor=none;" vertex="1" parent="1">
          <mxGeometry x="-250" y="30" width="430" height="30" as="geometry" />
        </mxCell>
        <mxCell id="QtVIB-dNij4-l_Jry0lX-75" value="" style="edgeStyle=orthogonalEdgeStyle;rounded=0;orthogonalLoop=1;jettySize=auto;html=1;" edge="1" parent="1" source="QtVIB-dNij4-l_Jry0lX-73" target="QtVIB-dNij4-l_Jry0lX-74">
          <mxGeometry relative="1" as="geometry" />
        </mxCell>
        <mxCell id="QtVIB-dNij4-l_Jry0lX-73" value="Start" style="ellipse;whiteSpace=wrap;html=1;" vertex="1" parent="1">
          <mxGeometry x="-210" y="80" width="120" height="80" as="geometry" />
        </mxCell>
        <mxCell id="QtVIB-dNij4-l_Jry0lX-77" value="" style="edgeStyle=orthogonalEdgeStyle;rounded=0;orthogonalLoop=1;jettySize=auto;html=1;" edge="1" parent="1" source="QtVIB-dNij4-l_Jry0lX-74" target="QtVIB-dNij4-l_Jry0lX-76">
          <mxGeometry relative="1" as="geometry" />
        </mxCell>
        <mxCell id="QtVIB-dNij4-l_Jry0lX-74" value="int j=0" style="rounded=0;whiteSpace=wrap;html=1;" vertex="1" parent="1">
          <mxGeometry x="-210" y="200" width="120" height="60" as="geometry" />
        </mxCell>
        <mxCell id="QtVIB-dNij4-l_Jry0lX-78" style="edgeStyle=orthogonalEdgeStyle;rounded=0;orthogonalLoop=1;jettySize=auto;html=1;" edge="1" parent="1" source="QtVIB-dNij4-l_Jry0lX-76">
          <mxGeometry relative="1" as="geometry">
            <mxPoint x="-150" y="410" as="targetPoint" />
          </mxGeometry>
        </mxCell>
        <mxCell id="QtVIB-dNij4-l_Jry0lX-76" value="&lt;div&gt;Output &quot;Available&lt;/div&gt;&lt;div&gt;books: &quot; endl&lt;br&gt;&lt;/div&gt;" style="shape=parallelogram;perimeter=parallelogramPerimeter;whiteSpace=wrap;html=1;fixedSize=1;" vertex="1" parent="1">
          <mxGeometry x="-210" y="300" width="120" height="60" as="geometry" />
        </mxCell>
        <mxCell id="QtVIB-dNij4-l_Jry0lX-80" style="edgeStyle=orthogonalEdgeStyle;rounded=0;orthogonalLoop=1;jettySize=auto;html=1;" edge="1" parent="1" source="QtVIB-dNij4-l_Jry0lX-79">
          <mxGeometry relative="1" as="geometry">
            <mxPoint x="-150" y="550" as="targetPoint" />
          </mxGeometry>
        </mxCell>
        <mxCell id="QtVIB-dNij4-l_Jry0lX-85" value="Yes" style="edgeLabel;html=1;align=center;verticalAlign=middle;resizable=0;points=[];" connectable="0" vertex="1" parent="QtVIB-dNij4-l_Jry0lX-80">
          <mxGeometry x="-0.1517" relative="1" as="geometry">
            <mxPoint as="offset" />
          </mxGeometry>
        </mxCell>
        <mxCell id="QtVIB-dNij4-l_Jry0lX-89" style="edgeStyle=orthogonalEdgeStyle;rounded=0;orthogonalLoop=1;jettySize=auto;html=1;" edge="1" parent="1" source="QtVIB-dNij4-l_Jry0lX-79">
          <mxGeometry relative="1" as="geometry">
            <mxPoint x="10" y="450" as="targetPoint" />
          </mxGeometry>
        </mxCell>
        <mxCell id="QtVIB-dNij4-l_Jry0lX-90" value="No" style="edgeLabel;html=1;align=center;verticalAlign=middle;resizable=0;points=[];" connectable="0" vertex="1" parent="QtVIB-dNij4-l_Jry0lX-89">
          <mxGeometry x="-0.1821" relative="1" as="geometry">
            <mxPoint as="offset" />
          </mxGeometry>
        </mxCell>
        <mxCell id="QtVIB-dNij4-l_Jry0lX-79" value="&lt;div&gt;Elements bool i in&lt;/div&gt;&lt;div&gt;bookavailability?&lt;br&gt;&lt;/div&gt;" style="rhombus;whiteSpace=wrap;html=1;" vertex="1" parent="1">
          <mxGeometry x="-222.5" y="410" width="145" height="80" as="geometry" />
        </mxCell>
        <mxCell id="QtVIB-dNij4-l_Jry0lX-83" style="edgeStyle=orthogonalEdgeStyle;rounded=0;orthogonalLoop=1;jettySize=auto;html=1;entryX=0.5;entryY=0;entryDx=0;entryDy=0;" edge="1" parent="1" source="QtVIB-dNij4-l_Jry0lX-81" target="QtVIB-dNij4-l_Jry0lX-82">
          <mxGeometry relative="1" as="geometry" />
        </mxCell>
        <mxCell id="QtVIB-dNij4-l_Jry0lX-84" value="Yes" style="edgeLabel;html=1;align=center;verticalAlign=middle;resizable=0;points=[];" connectable="0" vertex="1" parent="QtVIB-dNij4-l_Jry0lX-83">
          <mxGeometry x="-0.1655" relative="1" as="geometry">
            <mxPoint as="offset" />
          </mxGeometry>
        </mxCell>
        <mxCell id="QtVIB-dNij4-l_Jry0lX-81" value="i?" style="rhombus;whiteSpace=wrap;html=1;" vertex="1" parent="1">
          <mxGeometry x="-222.5" y="550" width="145" height="80" as="geometry" />
        </mxCell>
        <mxCell id="QtVIB-dNij4-l_Jry0lX-87" style="edgeStyle=orthogonalEdgeStyle;rounded=0;orthogonalLoop=1;jettySize=auto;html=1;entryX=0.5;entryY=0;entryDx=0;entryDy=0;" edge="1" parent="1" source="QtVIB-dNij4-l_Jry0lX-82" target="QtVIB-dNij4-l_Jry0lX-86">
          <mxGeometry relative="1" as="geometry" />
        </mxCell>
        <mxCell id="QtVIB-dNij4-l_Jry0lX-82" value="&lt;div&gt;Output books[j]&lt;/div&gt;&lt;div&gt;endl&lt;br&gt;&lt;/div&gt;" style="shape=parallelogram;perimeter=parallelogramPerimeter;whiteSpace=wrap;html=1;fixedSize=1;" vertex="1" parent="1">
          <mxGeometry x="-210" y="670" width="120" height="60" as="geometry" />
        </mxCell>
        <mxCell id="QtVIB-dNij4-l_Jry0lX-88" style="edgeStyle=orthogonalEdgeStyle;rounded=0;orthogonalLoop=1;jettySize=auto;html=1;entryX=0;entryY=0.5;entryDx=0;entryDy=0;" edge="1" parent="1" source="QtVIB-dNij4-l_Jry0lX-86" target="QtVIB-dNij4-l_Jry0lX-79">
          <mxGeometry relative="1" as="geometry">
            <mxPoint x="-320" y="450" as="targetPoint" />
            <Array as="points">
              <mxPoint x="-340" y="790" />
              <mxPoint x="-340" y="450" />
            </Array>
          </mxGeometry>
        </mxCell>
        <mxCell id="QtVIB-dNij4-l_Jry0lX-86" value="j++" style="rounded=0;whiteSpace=wrap;html=1;" vertex="1" parent="1">
          <mxGeometry x="-210" y="760" width="120" height="60" as="geometry" />
        </mxCell>
        <mxCell id="QtVIB-dNij4-l_Jry0lX-92" style="edgeStyle=orthogonalEdgeStyle;rounded=0;orthogonalLoop=1;jettySize=auto;html=1;" edge="1" parent="1" source="QtVIB-dNij4-l_Jry0lX-91">
          <mxGeometry relative="1" as="geometry">
            <mxPoint x="70" y="550" as="targetPoint" />
          </mxGeometry>
        </mxCell>
        <mxCell id="QtVIB-dNij4-l_Jry0lX-91" value="int j=0" style="rounded=0;whiteSpace=wrap;html=1;" vertex="1" parent="1">
          <mxGeometry x="10" y="420" width="120" height="60" as="geometry" />
        </mxCell>
        <mxCell id="QtVIB-dNij4-l_Jry0lX-104" style="edgeStyle=orthogonalEdgeStyle;rounded=0;orthogonalLoop=1;jettySize=auto;html=1;entryX=0.5;entryY=0;entryDx=0;entryDy=0;" edge="1" parent="1" source="QtVIB-dNij4-l_Jry0lX-93" target="QtVIB-dNij4-l_Jry0lX-96">
          <mxGeometry relative="1" as="geometry" />
        </mxCell>
        <mxCell id="QtVIB-dNij4-l_Jry0lX-93" value="&lt;div&gt;Output &quot;Unavailable&lt;/div&gt;&lt;div&gt;books: &quot; endl&lt;br&gt;&lt;/div&gt;" style="shape=parallelogram;perimeter=parallelogramPerimeter;whiteSpace=wrap;html=1;fixedSize=1;" vertex="1" parent="1">
          <mxGeometry y="550" width="140" height="60" as="geometry" />
        </mxCell>
        <mxCell id="QtVIB-dNij4-l_Jry0lX-94" style="edgeStyle=orthogonalEdgeStyle;rounded=0;orthogonalLoop=1;jettySize=auto;html=1;" edge="1" parent="1" source="QtVIB-dNij4-l_Jry0lX-96">
          <mxGeometry relative="1" as="geometry">
            <mxPoint x="70" y="780" as="targetPoint" />
          </mxGeometry>
        </mxCell>
        <mxCell id="QtVIB-dNij4-l_Jry0lX-95" value="Yes" style="edgeLabel;html=1;align=center;verticalAlign=middle;resizable=0;points=[];" connectable="0" vertex="1" parent="QtVIB-dNij4-l_Jry0lX-94">
          <mxGeometry x="-0.1517" relative="1" as="geometry">
            <mxPoint as="offset" />
          </mxGeometry>
        </mxCell>
        <mxCell id="QtVIB-dNij4-l_Jry0lX-105" style="edgeStyle=orthogonalEdgeStyle;rounded=0;orthogonalLoop=1;jettySize=auto;html=1;" edge="1" parent="1" source="QtVIB-dNij4-l_Jry0lX-96">
          <mxGeometry relative="1" as="geometry">
            <mxPoint x="-59.99999999999977" y="1040" as="targetPoint" />
          </mxGeometry>
        </mxCell>
        <mxCell id="QtVIB-dNij4-l_Jry0lX-106" value="No" style="edgeLabel;html=1;align=center;verticalAlign=middle;resizable=0;points=[];" connectable="0" vertex="1" parent="QtVIB-dNij4-l_Jry0lX-105">
          <mxGeometry x="0.5715" y="1" relative="1" as="geometry">
            <mxPoint x="29" y="-270" as="offset" />
          </mxGeometry>
        </mxCell>
        <mxCell id="QtVIB-dNij4-l_Jry0lX-96" value="&lt;div&gt;Elements bool i in&lt;/div&gt;&lt;div&gt;bookavailability?&lt;br&gt;&lt;/div&gt;" style="rhombus;whiteSpace=wrap;html=1;" vertex="1" parent="1">
          <mxGeometry x="-2.5" y="640" width="145" height="80" as="geometry" />
        </mxCell>
        <mxCell id="QtVIB-dNij4-l_Jry0lX-97" style="edgeStyle=orthogonalEdgeStyle;rounded=0;orthogonalLoop=1;jettySize=auto;html=1;entryX=0.5;entryY=0;entryDx=0;entryDy=0;" edge="1" parent="1" source="QtVIB-dNij4-l_Jry0lX-99" target="QtVIB-dNij4-l_Jry0lX-101">
          <mxGeometry relative="1" as="geometry" />
        </mxCell>
        <mxCell id="QtVIB-dNij4-l_Jry0lX-98" value="Yes" style="edgeLabel;html=1;align=center;verticalAlign=middle;resizable=0;points=[];" connectable="0" vertex="1" parent="QtVIB-dNij4-l_Jry0lX-97">
          <mxGeometry x="-0.1655" relative="1" as="geometry">
            <mxPoint as="offset" />
          </mxGeometry>
        </mxCell>
        <mxCell id="QtVIB-dNij4-l_Jry0lX-99" value="!i?" style="rhombus;whiteSpace=wrap;html=1;" vertex="1" parent="1">
          <mxGeometry x="-2.5" y="780" width="145" height="80" as="geometry" />
        </mxCell>
        <mxCell id="QtVIB-dNij4-l_Jry0lX-100" style="edgeStyle=orthogonalEdgeStyle;rounded=0;orthogonalLoop=1;jettySize=auto;html=1;entryX=0.5;entryY=0;entryDx=0;entryDy=0;" edge="1" parent="1" source="QtVIB-dNij4-l_Jry0lX-101" target="QtVIB-dNij4-l_Jry0lX-103">
          <mxGeometry relative="1" as="geometry" />
        </mxCell>
        <mxCell id="QtVIB-dNij4-l_Jry0lX-101" value="&lt;div&gt;Output books[j]&lt;/div&gt;&lt;div&gt;endl&lt;br&gt;&lt;/div&gt;" style="shape=parallelogram;perimeter=parallelogramPerimeter;whiteSpace=wrap;html=1;fixedSize=1;" vertex="1" parent="1">
          <mxGeometry x="10" y="900" width="120" height="60" as="geometry" />
        </mxCell>
        <mxCell id="QtVIB-dNij4-l_Jry0lX-102" style="edgeStyle=orthogonalEdgeStyle;rounded=0;orthogonalLoop=1;jettySize=auto;html=1;entryX=1;entryY=0.5;entryDx=0;entryDy=0;" edge="1" parent="1" source="QtVIB-dNij4-l_Jry0lX-103" target="QtVIB-dNij4-l_Jry0lX-96">
          <mxGeometry relative="1" as="geometry">
            <mxPoint x="-100" y="680" as="targetPoint" />
            <Array as="points">
              <mxPoint x="260" y="1020" />
              <mxPoint x="260" y="680" />
            </Array>
          </mxGeometry>
        </mxCell>
        <mxCell id="QtVIB-dNij4-l_Jry0lX-103" value="j++" style="rounded=0;whiteSpace=wrap;html=1;" vertex="1" parent="1">
          <mxGeometry x="10" y="990" width="120" height="60" as="geometry" />
        </mxCell>
        <mxCell id="QtVIB-dNij4-l_Jry0lX-107" value="End" style="ellipse;whiteSpace=wrap;html=1;" vertex="1" parent="1">
          <mxGeometry x="-120" y="1040" width="120" height="80" as="geometry" />
        </mxCell>
        <mxCell id="QtVIB-dNij4-l_Jry0lX-108" value="&lt;div&gt;&lt;b&gt;void returnAbook(vector&amp;lt;string&amp;gt; &amp;amp;books, vector&amp;lt;bool&amp;gt; &amp;amp;bookavailability)&lt;/b&gt;&lt;/div&gt;" style="text;html=1;align=center;verticalAlign=middle;resizable=0;points=[];autosize=1;strokeColor=none;fillColor=none;" vertex="1" parent="1">
          <mxGeometry x="240" y="35" width="440" height="30" as="geometry" />
        </mxCell>
        <mxCell id="QtVIB-dNij4-l_Jry0lX-109" value="" style="edgeStyle=orthogonalEdgeStyle;rounded=0;orthogonalLoop=1;jettySize=auto;html=1;" edge="1" parent="1" source="QtVIB-dNij4-l_Jry0lX-110">
          <mxGeometry relative="1" as="geometry">
            <mxPoint x="460" y="200" as="targetPoint" />
          </mxGeometry>
        </mxCell>
        <mxCell id="QtVIB-dNij4-l_Jry0lX-110" value="Start" style="ellipse;whiteSpace=wrap;html=1;" vertex="1" parent="1">
          <mxGeometry x="400" y="80" width="120" height="80" as="geometry" />
        </mxCell>
        <mxCell id="QtVIB-dNij4-l_Jry0lX-111" value="&lt;div&gt;int num&lt;/div&gt;&lt;div&gt;int j=0&lt;br&gt;&lt;/div&gt;" style="rounded=0;whiteSpace=wrap;html=1;" vertex="1" parent="1">
          <mxGeometry x="400" y="200" width="120" height="60" as="geometry" />
        </mxCell>
        <mxCell id="QtVIB-dNij4-l_Jry0lX-112" value="" style="edgeStyle=orthogonalEdgeStyle;rounded=0;orthogonalLoop=1;jettySize=auto;html=1;" edge="1" parent="1" source="QtVIB-dNij4-l_Jry0lX-113" target="QtVIB-dNij4-l_Jry0lX-115">
          <mxGeometry relative="1" as="geometry" />
        </mxCell>
        <mxCell id="QtVIB-dNij4-l_Jry0lX-113" value="int j=0" style="rounded=0;whiteSpace=wrap;html=1;" vertex="1" parent="1">
          <mxGeometry x="400" y="290" width="120" height="60" as="geometry" />
        </mxCell>
        <mxCell id="QtVIB-dNij4-l_Jry0lX-114" style="edgeStyle=orthogonalEdgeStyle;rounded=0;orthogonalLoop=1;jettySize=auto;html=1;" edge="1" parent="1" source="QtVIB-dNij4-l_Jry0lX-115">
          <mxGeometry relative="1" as="geometry">
            <mxPoint x="460" y="500" as="targetPoint" />
          </mxGeometry>
        </mxCell>
        <mxCell id="QtVIB-dNij4-l_Jry0lX-115" value="&lt;div&gt;Output &quot;Borrowed&lt;/div&gt;&lt;div&gt;books: &quot; endl&lt;br&gt;&lt;/div&gt;" style="shape=parallelogram;perimeter=parallelogramPerimeter;whiteSpace=wrap;html=1;fixedSize=1;" vertex="1" parent="1">
          <mxGeometry x="400" y="390" width="120" height="60" as="geometry" />
        </mxCell>
        <mxCell id="QtVIB-dNij4-l_Jry0lX-116" style="edgeStyle=orthogonalEdgeStyle;rounded=0;orthogonalLoop=1;jettySize=auto;html=1;" edge="1" parent="1" source="QtVIB-dNij4-l_Jry0lX-118">
          <mxGeometry relative="1" as="geometry">
            <mxPoint x="460" y="640" as="targetPoint" />
          </mxGeometry>
        </mxCell>
        <mxCell id="QtVIB-dNij4-l_Jry0lX-117" value="Yes" style="edgeLabel;html=1;align=center;verticalAlign=middle;resizable=0;points=[];" connectable="0" vertex="1" parent="QtVIB-dNij4-l_Jry0lX-116">
          <mxGeometry x="-0.1517" relative="1" as="geometry">
            <mxPoint as="offset" />
          </mxGeometry>
        </mxCell>
        <mxCell id="QtVIB-dNij4-l_Jry0lX-126" style="edgeStyle=orthogonalEdgeStyle;rounded=0;orthogonalLoop=1;jettySize=auto;html=1;" edge="1" parent="1" source="QtVIB-dNij4-l_Jry0lX-118">
          <mxGeometry relative="1" as="geometry">
            <mxPoint x="640" y="650" as="targetPoint" />
          </mxGeometry>
        </mxCell>
        <mxCell id="QtVIB-dNij4-l_Jry0lX-127" value="No" style="edgeLabel;html=1;align=center;verticalAlign=middle;resizable=0;points=[];" connectable="0" vertex="1" parent="QtVIB-dNij4-l_Jry0lX-126">
          <mxGeometry x="-0.2166" relative="1" as="geometry">
            <mxPoint x="-38" y="-1" as="offset" />
          </mxGeometry>
        </mxCell>
        <mxCell id="QtVIB-dNij4-l_Jry0lX-128" value="returning:" style="edgeLabel;html=1;align=center;verticalAlign=middle;resizable=0;points=[];" connectable="0" vertex="1" parent="QtVIB-dNij4-l_Jry0lX-126">
          <mxGeometry x="0.4234" relative="1" as="geometry">
            <mxPoint as="offset" />
          </mxGeometry>
        </mxCell>
        <mxCell id="QtVIB-dNij4-l_Jry0lX-118" value="&lt;div&gt;Elements bool i in&lt;/div&gt;&lt;div&gt;bookavailability?&lt;br&gt;&lt;/div&gt;" style="rhombus;whiteSpace=wrap;html=1;" vertex="1" parent="1">
          <mxGeometry x="387.5" y="500" width="145" height="80" as="geometry" />
        </mxCell>
        <mxCell id="QtVIB-dNij4-l_Jry0lX-119" style="edgeStyle=orthogonalEdgeStyle;rounded=0;orthogonalLoop=1;jettySize=auto;html=1;entryX=0.5;entryY=0;entryDx=0;entryDy=0;" edge="1" parent="1" source="QtVIB-dNij4-l_Jry0lX-121" target="QtVIB-dNij4-l_Jry0lX-123">
          <mxGeometry relative="1" as="geometry" />
        </mxCell>
        <mxCell id="QtVIB-dNij4-l_Jry0lX-120" value="Yes" style="edgeLabel;html=1;align=center;verticalAlign=middle;resizable=0;points=[];" connectable="0" vertex="1" parent="QtVIB-dNij4-l_Jry0lX-119">
          <mxGeometry x="-0.1655" relative="1" as="geometry">
            <mxPoint as="offset" />
          </mxGeometry>
        </mxCell>
        <mxCell id="QtVIB-dNij4-l_Jry0lX-121" value="!i?" style="rhombus;whiteSpace=wrap;html=1;" vertex="1" parent="1">
          <mxGeometry x="387.5" y="640" width="145" height="80" as="geometry" />
        </mxCell>
        <mxCell id="QtVIB-dNij4-l_Jry0lX-122" style="edgeStyle=orthogonalEdgeStyle;rounded=0;orthogonalLoop=1;jettySize=auto;html=1;entryX=0.5;entryY=0;entryDx=0;entryDy=0;" edge="1" parent="1" source="QtVIB-dNij4-l_Jry0lX-123" target="QtVIB-dNij4-l_Jry0lX-125">
          <mxGeometry relative="1" as="geometry" />
        </mxCell>
        <mxCell id="QtVIB-dNij4-l_Jry0lX-123" value="&lt;div&gt;Output j+1 &quot;.&quot; books[j]&lt;/div&gt;&lt;div&gt;endl&lt;br&gt;&lt;/div&gt;" style="shape=parallelogram;perimeter=parallelogramPerimeter;whiteSpace=wrap;html=1;fixedSize=1;" vertex="1" parent="1">
          <mxGeometry x="385" y="760" width="150" height="60" as="geometry" />
        </mxCell>
        <mxCell id="QtVIB-dNij4-l_Jry0lX-124" style="edgeStyle=orthogonalEdgeStyle;rounded=0;orthogonalLoop=1;jettySize=auto;html=1;entryX=0;entryY=0.5;entryDx=0;entryDy=0;" edge="1" parent="1" source="QtVIB-dNij4-l_Jry0lX-125" target="QtVIB-dNij4-l_Jry0lX-118">
          <mxGeometry relative="1" as="geometry">
            <mxPoint x="290" y="540" as="targetPoint" />
            <Array as="points">
              <mxPoint x="270" y="880" />
              <mxPoint x="270" y="540" />
            </Array>
          </mxGeometry>
        </mxCell>
        <mxCell id="QtVIB-dNij4-l_Jry0lX-125" value="j++" style="rounded=0;whiteSpace=wrap;html=1;" vertex="1" parent="1">
          <mxGeometry x="400" y="850" width="120" height="60" as="geometry" />
        </mxCell>
        <mxCell id="QtVIB-dNij4-l_Jry0lX-130" style="edgeStyle=orthogonalEdgeStyle;rounded=0;orthogonalLoop=1;jettySize=auto;html=1;" edge="1" parent="1" source="QtVIB-dNij4-l_Jry0lX-129">
          <mxGeometry relative="1" as="geometry">
            <mxPoint x="640" y="750" as="targetPoint" />
          </mxGeometry>
        </mxCell>
        <mxCell id="QtVIB-dNij4-l_Jry0lX-129" value="&lt;div&gt;Output &quot;Which&lt;/div&gt;&lt;div&gt;book would you&lt;/div&gt;&lt;div&gt;like to return?&quot;&lt;/div&gt;&lt;div&gt;endl&lt;br&gt;&lt;/div&gt;" style="shape=parallelogram;perimeter=parallelogramPerimeter;whiteSpace=wrap;html=1;fixedSize=1;" vertex="1" parent="1">
          <mxGeometry x="580" y="650" width="120" height="60" as="geometry" />
        </mxCell>
        <mxCell id="QtVIB-dNij4-l_Jry0lX-133" value="" style="edgeStyle=orthogonalEdgeStyle;rounded=0;orthogonalLoop=1;jettySize=auto;html=1;" edge="1" parent="1" source="QtVIB-dNij4-l_Jry0lX-131" target="QtVIB-dNij4-l_Jry0lX-132">
          <mxGeometry relative="1" as="geometry" />
        </mxCell>
        <mxCell id="QtVIB-dNij4-l_Jry0lX-131" value="Input num" style="shape=parallelogram;perimeter=parallelogramPerimeter;whiteSpace=wrap;html=1;fixedSize=1;" vertex="1" parent="1">
          <mxGeometry x="580" y="750" width="120" height="60" as="geometry" />
        </mxCell>
        <mxCell id="QtVIB-dNij4-l_Jry0lX-134" style="edgeStyle=orthogonalEdgeStyle;rounded=0;orthogonalLoop=1;jettySize=auto;html=1;" edge="1" parent="1" source="QtVIB-dNij4-l_Jry0lX-132">
          <mxGeometry relative="1" as="geometry">
            <mxPoint x="870" y="980" as="targetPoint" />
          </mxGeometry>
        </mxCell>
        <mxCell id="QtVIB-dNij4-l_Jry0lX-141" value="No" style="edgeLabel;html=1;align=center;verticalAlign=middle;resizable=0;points=[];" connectable="0" vertex="1" parent="QtVIB-dNij4-l_Jry0lX-134">
          <mxGeometry x="-0.5324" relative="1" as="geometry">
            <mxPoint as="offset" />
          </mxGeometry>
        </mxCell>
        <mxCell id="QtVIB-dNij4-l_Jry0lX-135" style="edgeStyle=orthogonalEdgeStyle;rounded=0;orthogonalLoop=1;jettySize=auto;html=1;" edge="1" parent="1" source="QtVIB-dNij4-l_Jry0lX-132">
          <mxGeometry relative="1" as="geometry">
            <mxPoint x="640" y="980" as="targetPoint" />
          </mxGeometry>
        </mxCell>
        <mxCell id="QtVIB-dNij4-l_Jry0lX-142" value="Yes" style="edgeLabel;html=1;align=center;verticalAlign=middle;resizable=0;points=[];" connectable="0" vertex="1" parent="QtVIB-dNij4-l_Jry0lX-135">
          <mxGeometry x="-0.2918" relative="1" as="geometry">
            <mxPoint as="offset" />
          </mxGeometry>
        </mxCell>
        <mxCell id="QtVIB-dNij4-l_Jry0lX-132" value="!bookavailability[num-1]?" style="rhombus;whiteSpace=wrap;html=1;" vertex="1" parent="1">
          <mxGeometry x="560" y="840" width="160" height="80" as="geometry" />
        </mxCell>
        <mxCell id="QtVIB-dNij4-l_Jry0lX-138" style="edgeStyle=orthogonalEdgeStyle;rounded=0;orthogonalLoop=1;jettySize=auto;html=1;" edge="1" parent="1" source="QtVIB-dNij4-l_Jry0lX-136">
          <mxGeometry relative="1" as="geometry">
            <mxPoint x="640" y="1080" as="targetPoint" />
          </mxGeometry>
        </mxCell>
        <mxCell id="QtVIB-dNij4-l_Jry0lX-136" value="&lt;div&gt;Output &quot;You returned the &quot; books[num-1] &quot; book!&quot;&lt;/div&gt;&lt;div&gt;endl&lt;br&gt;&lt;/div&gt;" style="shape=parallelogram;perimeter=parallelogramPerimeter;whiteSpace=wrap;html=1;fixedSize=1;" vertex="1" parent="1">
          <mxGeometry x="555" y="980" width="170" height="60" as="geometry" />
        </mxCell>
        <mxCell id="QtVIB-dNij4-l_Jry0lX-140" style="edgeStyle=orthogonalEdgeStyle;rounded=0;orthogonalLoop=1;jettySize=auto;html=1;" edge="1" parent="1" source="QtVIB-dNij4-l_Jry0lX-137">
          <mxGeometry relative="1" as="geometry">
            <mxPoint x="670" y="590" as="targetPoint" />
            <Array as="points">
              <mxPoint x="981" y="1010" />
              <mxPoint x="981" y="590" />
            </Array>
          </mxGeometry>
        </mxCell>
        <mxCell id="QtVIB-dNij4-l_Jry0lX-137" value="&lt;div&gt;Output &quot;You aren&#39;t&amp;nbsp;&lt;/div&gt;&lt;div&gt;borrowing that book or it doesn&#39;t exist.&quot; endl&lt;br&gt;&lt;/div&gt;" style="shape=parallelogram;perimeter=parallelogramPerimeter;whiteSpace=wrap;html=1;fixedSize=1;" vertex="1" parent="1">
          <mxGeometry x="780" y="980" width="170" height="60" as="geometry" />
        </mxCell>
        <mxCell id="QtVIB-dNij4-l_Jry0lX-143" style="edgeStyle=orthogonalEdgeStyle;rounded=0;orthogonalLoop=1;jettySize=auto;html=1;" edge="1" parent="1" source="QtVIB-dNij4-l_Jry0lX-139">
          <mxGeometry relative="1" as="geometry">
            <mxPoint x="640" y="1180" as="targetPoint" />
          </mxGeometry>
        </mxCell>
        <mxCell id="QtVIB-dNij4-l_Jry0lX-139" value="bookavailability[num-1]=true" style="rounded=0;whiteSpace=wrap;html=1;" vertex="1" parent="1">
          <mxGeometry x="560" y="1080" width="160" height="60" as="geometry" />
        </mxCell>
        <mxCell id="QtVIB-dNij4-l_Jry0lX-144" value="End" style="ellipse;whiteSpace=wrap;html=1;" vertex="1" parent="1">
          <mxGeometry x="580" y="1180" width="120" height="80" as="geometry" />
        </mxCell>
        <mxCell id="QtVIB-dNij4-l_Jry0lX-145" value="" style="edgeStyle=orthogonalEdgeStyle;rounded=0;orthogonalLoop=1;jettySize=auto;html=1;" edge="1" parent="1" source="QtVIB-dNij4-l_Jry0lX-146">
          <mxGeometry relative="1" as="geometry">
            <mxPoint x="1250" y="200" as="targetPoint" />
          </mxGeometry>
        </mxCell>
        <mxCell id="QtVIB-dNij4-l_Jry0lX-146" value="Start" style="ellipse;whiteSpace=wrap;html=1;" vertex="1" parent="1">
          <mxGeometry x="1190" y="80" width="120" height="80" as="geometry" />
        </mxCell>
        <mxCell id="QtVIB-dNij4-l_Jry0lX-147" value="&lt;div&gt;int num&lt;/div&gt;&lt;div&gt;int j=0&lt;br&gt;&lt;/div&gt;" style="rounded=0;whiteSpace=wrap;html=1;" vertex="1" parent="1">
          <mxGeometry x="1190" y="200" width="120" height="60" as="geometry" />
        </mxCell>
        <mxCell id="QtVIB-dNij4-l_Jry0lX-148" value="" style="edgeStyle=orthogonalEdgeStyle;rounded=0;orthogonalLoop=1;jettySize=auto;html=1;" edge="1" parent="1" source="QtVIB-dNij4-l_Jry0lX-149" target="QtVIB-dNij4-l_Jry0lX-151">
          <mxGeometry relative="1" as="geometry" />
        </mxCell>
        <mxCell id="QtVIB-dNij4-l_Jry0lX-149" value="int j=0" style="rounded=0;whiteSpace=wrap;html=1;" vertex="1" parent="1">
          <mxGeometry x="1190" y="290" width="120" height="60" as="geometry" />
        </mxCell>
        <mxCell id="QtVIB-dNij4-l_Jry0lX-150" style="edgeStyle=orthogonalEdgeStyle;rounded=0;orthogonalLoop=1;jettySize=auto;html=1;" edge="1" parent="1" source="QtVIB-dNij4-l_Jry0lX-151">
          <mxGeometry relative="1" as="geometry">
            <mxPoint x="1250" y="500" as="targetPoint" />
          </mxGeometry>
        </mxCell>
        <mxCell id="QtVIB-dNij4-l_Jry0lX-151" value="&lt;div&gt;Output &quot;Available&lt;/div&gt;&lt;div&gt;books: &quot; endl&lt;br&gt;&lt;/div&gt;" style="shape=parallelogram;perimeter=parallelogramPerimeter;whiteSpace=wrap;html=1;fixedSize=1;" vertex="1" parent="1">
          <mxGeometry x="1190" y="390" width="120" height="60" as="geometry" />
        </mxCell>
        <mxCell id="QtVIB-dNij4-l_Jry0lX-152" style="edgeStyle=orthogonalEdgeStyle;rounded=0;orthogonalLoop=1;jettySize=auto;html=1;" edge="1" parent="1" source="QtVIB-dNij4-l_Jry0lX-157">
          <mxGeometry relative="1" as="geometry">
            <mxPoint x="1250" y="640" as="targetPoint" />
          </mxGeometry>
        </mxCell>
        <mxCell id="QtVIB-dNij4-l_Jry0lX-153" value="Yes" style="edgeLabel;html=1;align=center;verticalAlign=middle;resizable=0;points=[];" connectable="0" vertex="1" parent="QtVIB-dNij4-l_Jry0lX-152">
          <mxGeometry x="-0.1517" relative="1" as="geometry">
            <mxPoint as="offset" />
          </mxGeometry>
        </mxCell>
        <mxCell id="QtVIB-dNij4-l_Jry0lX-154" style="edgeStyle=orthogonalEdgeStyle;rounded=0;orthogonalLoop=1;jettySize=auto;html=1;" edge="1" parent="1" source="QtVIB-dNij4-l_Jry0lX-157">
          <mxGeometry relative="1" as="geometry">
            <mxPoint x="1430" y="650" as="targetPoint" />
          </mxGeometry>
        </mxCell>
        <mxCell id="QtVIB-dNij4-l_Jry0lX-155" value="No" style="edgeLabel;html=1;align=center;verticalAlign=middle;resizable=0;points=[];" connectable="0" vertex="1" parent="QtVIB-dNij4-l_Jry0lX-154">
          <mxGeometry x="-0.2166" relative="1" as="geometry">
            <mxPoint x="-38" y="-1" as="offset" />
          </mxGeometry>
        </mxCell>
        <mxCell id="QtVIB-dNij4-l_Jry0lX-156" value="borrowing:" style="edgeLabel;html=1;align=center;verticalAlign=middle;resizable=0;points=[];" connectable="0" vertex="1" parent="QtVIB-dNij4-l_Jry0lX-154">
          <mxGeometry x="0.4234" relative="1" as="geometry">
            <mxPoint as="offset" />
          </mxGeometry>
        </mxCell>
        <mxCell id="QtVIB-dNij4-l_Jry0lX-157" value="&lt;div&gt;Elements bool i in&lt;/div&gt;&lt;div&gt;bookavailability?&lt;br&gt;&lt;/div&gt;" style="rhombus;whiteSpace=wrap;html=1;" vertex="1" parent="1">
          <mxGeometry x="1177.5" y="500" width="145" height="80" as="geometry" />
        </mxCell>
        <mxCell id="QtVIB-dNij4-l_Jry0lX-158" style="edgeStyle=orthogonalEdgeStyle;rounded=0;orthogonalLoop=1;jettySize=auto;html=1;entryX=0.5;entryY=0;entryDx=0;entryDy=0;" edge="1" parent="1" source="QtVIB-dNij4-l_Jry0lX-160" target="QtVIB-dNij4-l_Jry0lX-162">
          <mxGeometry relative="1" as="geometry" />
        </mxCell>
        <mxCell id="QtVIB-dNij4-l_Jry0lX-159" value="Yes" style="edgeLabel;html=1;align=center;verticalAlign=middle;resizable=0;points=[];" connectable="0" vertex="1" parent="QtVIB-dNij4-l_Jry0lX-158">
          <mxGeometry x="-0.1655" relative="1" as="geometry">
            <mxPoint as="offset" />
          </mxGeometry>
        </mxCell>
        <mxCell id="QtVIB-dNij4-l_Jry0lX-160" value="i?" style="rhombus;whiteSpace=wrap;html=1;" vertex="1" parent="1">
          <mxGeometry x="1177.5" y="640" width="145" height="80" as="geometry" />
        </mxCell>
        <mxCell id="QtVIB-dNij4-l_Jry0lX-161" style="edgeStyle=orthogonalEdgeStyle;rounded=0;orthogonalLoop=1;jettySize=auto;html=1;entryX=0.5;entryY=0;entryDx=0;entryDy=0;" edge="1" parent="1" source="QtVIB-dNij4-l_Jry0lX-162" target="QtVIB-dNij4-l_Jry0lX-164">
          <mxGeometry relative="1" as="geometry" />
        </mxCell>
        <mxCell id="QtVIB-dNij4-l_Jry0lX-162" value="&lt;div&gt;Output j+1 &quot;.&quot; books[j]&lt;/div&gt;&lt;div&gt;endl&lt;br&gt;&lt;/div&gt;" style="shape=parallelogram;perimeter=parallelogramPerimeter;whiteSpace=wrap;html=1;fixedSize=1;" vertex="1" parent="1">
          <mxGeometry x="1175" y="760" width="150" height="60" as="geometry" />
        </mxCell>
        <mxCell id="QtVIB-dNij4-l_Jry0lX-163" style="edgeStyle=orthogonalEdgeStyle;rounded=0;orthogonalLoop=1;jettySize=auto;html=1;entryX=0;entryY=0.5;entryDx=0;entryDy=0;" edge="1" parent="1" source="QtVIB-dNij4-l_Jry0lX-164" target="QtVIB-dNij4-l_Jry0lX-157">
          <mxGeometry relative="1" as="geometry">
            <mxPoint x="1080" y="540" as="targetPoint" />
            <Array as="points">
              <mxPoint x="1060" y="880" />
              <mxPoint x="1060" y="540" />
            </Array>
          </mxGeometry>
        </mxCell>
        <mxCell id="QtVIB-dNij4-l_Jry0lX-164" value="j++" style="rounded=0;whiteSpace=wrap;html=1;" vertex="1" parent="1">
          <mxGeometry x="1190" y="850" width="120" height="60" as="geometry" />
        </mxCell>
        <mxCell id="QtVIB-dNij4-l_Jry0lX-165" style="edgeStyle=orthogonalEdgeStyle;rounded=0;orthogonalLoop=1;jettySize=auto;html=1;" edge="1" parent="1" source="QtVIB-dNij4-l_Jry0lX-166">
          <mxGeometry relative="1" as="geometry">
            <mxPoint x="1430" y="750" as="targetPoint" />
          </mxGeometry>
        </mxCell>
        <mxCell id="QtVIB-dNij4-l_Jry0lX-166" value="&lt;div&gt;Output &quot;Which&lt;/div&gt;&lt;div&gt;book would you&lt;/div&gt;&lt;div&gt;like to borrow?&quot;&lt;/div&gt;&lt;div&gt;endl&lt;br&gt;&lt;/div&gt;" style="shape=parallelogram;perimeter=parallelogramPerimeter;whiteSpace=wrap;html=1;fixedSize=1;" vertex="1" parent="1">
          <mxGeometry x="1370" y="650" width="120" height="60" as="geometry" />
        </mxCell>
        <mxCell id="QtVIB-dNij4-l_Jry0lX-167" value="" style="edgeStyle=orthogonalEdgeStyle;rounded=0;orthogonalLoop=1;jettySize=auto;html=1;" edge="1" parent="1" source="QtVIB-dNij4-l_Jry0lX-168" target="QtVIB-dNij4-l_Jry0lX-173">
          <mxGeometry relative="1" as="geometry" />
        </mxCell>
        <mxCell id="QtVIB-dNij4-l_Jry0lX-168" value="Input num" style="shape=parallelogram;perimeter=parallelogramPerimeter;whiteSpace=wrap;html=1;fixedSize=1;" vertex="1" parent="1">
          <mxGeometry x="1370" y="750" width="120" height="60" as="geometry" />
        </mxCell>
        <mxCell id="QtVIB-dNij4-l_Jry0lX-169" style="edgeStyle=orthogonalEdgeStyle;rounded=0;orthogonalLoop=1;jettySize=auto;html=1;" edge="1" parent="1" source="QtVIB-dNij4-l_Jry0lX-173">
          <mxGeometry relative="1" as="geometry">
            <mxPoint x="1660" y="980" as="targetPoint" />
          </mxGeometry>
        </mxCell>
        <mxCell id="QtVIB-dNij4-l_Jry0lX-170" value="No" style="edgeLabel;html=1;align=center;verticalAlign=middle;resizable=0;points=[];" connectable="0" vertex="1" parent="QtVIB-dNij4-l_Jry0lX-169">
          <mxGeometry x="-0.5324" relative="1" as="geometry">
            <mxPoint as="offset" />
          </mxGeometry>
        </mxCell>
        <mxCell id="QtVIB-dNij4-l_Jry0lX-171" style="edgeStyle=orthogonalEdgeStyle;rounded=0;orthogonalLoop=1;jettySize=auto;html=1;" edge="1" parent="1" source="QtVIB-dNij4-l_Jry0lX-173">
          <mxGeometry relative="1" as="geometry">
            <mxPoint x="1430" y="980" as="targetPoint" />
          </mxGeometry>
        </mxCell>
        <mxCell id="QtVIB-dNij4-l_Jry0lX-172" value="Yes" style="edgeLabel;html=1;align=center;verticalAlign=middle;resizable=0;points=[];" connectable="0" vertex="1" parent="QtVIB-dNij4-l_Jry0lX-171">
          <mxGeometry x="-0.2918" relative="1" as="geometry">
            <mxPoint as="offset" />
          </mxGeometry>
        </mxCell>
        <mxCell id="QtVIB-dNij4-l_Jry0lX-173" value="bookavailability[num-1]?" style="rhombus;whiteSpace=wrap;html=1;" vertex="1" parent="1">
          <mxGeometry x="1350" y="840" width="160" height="80" as="geometry" />
        </mxCell>
        <mxCell id="QtVIB-dNij4-l_Jry0lX-174" style="edgeStyle=orthogonalEdgeStyle;rounded=0;orthogonalLoop=1;jettySize=auto;html=1;" edge="1" parent="1" source="QtVIB-dNij4-l_Jry0lX-175">
          <mxGeometry relative="1" as="geometry">
            <mxPoint x="1430" y="1080" as="targetPoint" />
          </mxGeometry>
        </mxCell>
        <mxCell id="QtVIB-dNij4-l_Jry0lX-175" value="&lt;div&gt;Output &quot;You got the &quot; books[num-1] &quot; book!&quot;&lt;/div&gt;&lt;div&gt;endl&lt;br&gt;&lt;/div&gt;" style="shape=parallelogram;perimeter=parallelogramPerimeter;whiteSpace=wrap;html=1;fixedSize=1;" vertex="1" parent="1">
          <mxGeometry x="1345" y="980" width="170" height="60" as="geometry" />
        </mxCell>
        <mxCell id="QtVIB-dNij4-l_Jry0lX-176" style="edgeStyle=orthogonalEdgeStyle;rounded=0;orthogonalLoop=1;jettySize=auto;html=1;" edge="1" parent="1" source="QtVIB-dNij4-l_Jry0lX-177">
          <mxGeometry relative="1" as="geometry">
            <mxPoint x="1460" y="590" as="targetPoint" />
            <Array as="points">
              <mxPoint x="1771" y="1010" />
              <mxPoint x="1771" y="590" />
            </Array>
          </mxGeometry>
        </mxCell>
        <mxCell id="QtVIB-dNij4-l_Jry0lX-177" value="&lt;div&gt;Output &quot;That book isn&#39;t available.&quot;&lt;/div&gt;&lt;div&gt;endl&lt;br&gt;&lt;/div&gt;" style="shape=parallelogram;perimeter=parallelogramPerimeter;whiteSpace=wrap;html=1;fixedSize=1;" vertex="1" parent="1">
          <mxGeometry x="1570" y="980" width="170" height="60" as="geometry" />
        </mxCell>
        <mxCell id="QtVIB-dNij4-l_Jry0lX-178" style="edgeStyle=orthogonalEdgeStyle;rounded=0;orthogonalLoop=1;jettySize=auto;html=1;" edge="1" parent="1" source="QtVIB-dNij4-l_Jry0lX-179">
          <mxGeometry relative="1" as="geometry">
            <mxPoint x="1430" y="1180" as="targetPoint" />
          </mxGeometry>
        </mxCell>
        <mxCell id="QtVIB-dNij4-l_Jry0lX-179" value="bookavailability[num-1]=false" style="rounded=0;whiteSpace=wrap;html=1;" vertex="1" parent="1">
          <mxGeometry x="1350" y="1080" width="160" height="60" as="geometry" />
        </mxCell>
        <mxCell id="QtVIB-dNij4-l_Jry0lX-180" value="End" style="ellipse;whiteSpace=wrap;html=1;" vertex="1" parent="1">
          <mxGeometry x="1370" y="1180" width="120" height="80" as="geometry" />
        </mxCell>
        <mxCell id="QtVIB-dNij4-l_Jry0lX-181" value="&lt;div&gt;&lt;b&gt;void borrowAbook(vector&amp;lt;string&amp;gt; &amp;amp;books, vector&amp;lt;bool&amp;gt; &amp;amp;bookavailability)&lt;/b&gt;&lt;/div&gt;" style="text;html=1;align=center;verticalAlign=middle;resizable=0;points=[];autosize=1;strokeColor=none;fillColor=none;" vertex="1" parent="1">
          <mxGeometry x="1177.5" y="30" width="440" height="30" as="geometry" />
        </mxCell>
      </root>
    </mxGraphModel>
  </diagram>
</mxfile>
